<svg width="24" height="24" viewBox="0 0 24 24" fill="none" xmlns="http://www.w3.org/2000/svg">
<path d="M23.0234 19.1928V22.6628C23.0234 22.7585 22.9854 22.8503 22.9177 22.918C22.8501 22.9857 22.7583 23.0237 22.6625 23.0237H19.1926C19.0969 23.0237 19.0051 22.9857 18.9374 22.918C18.8697 22.8503 18.8317 22.7585 18.8317 22.6628C18.8317 22.5671 18.8697 22.4753 18.9374 22.4076C19.0051 22.3399 19.0969 22.3019 19.1926 22.3019H22.3016V19.1928C22.3016 19.0971 22.3397 19.0053 22.4073 18.9376C22.475 18.87 22.5668 18.8319 22.6625 18.8319C22.7583 18.8319 22.8501 18.87 22.9177 18.9376C22.9854 19.0053 23.0234 19.0971 23.0234 19.1928ZM5.30377 13.4673H2.05421C2.69436 17.8448 6.15541 21.3059 10.533 21.9461V18.6965C7.92527 18.1278 5.87251 16.0749 5.30377 13.4673ZM4.80744 22.3019H1.6984V19.1928C1.6984 19.0971 1.66038 19.0053 1.5927 18.9376C1.52501 18.87 1.43322 18.8319 1.3375 18.8319C1.24178 18.8319 1.14999 18.87 1.0823 18.9376C1.01462 19.0053 0.976598 19.0971 0.976598 19.1928V22.6628C0.976598 22.7585 1.01462 22.8503 1.0823 22.918C1.14999 22.9857 1.24178 23.0237 1.3375 23.0237H4.80744C4.90316 23.0237 4.99495 22.9857 5.06264 22.918C5.13032 22.8503 5.16834 22.7585 5.16834 22.6628C5.16834 22.5671 5.13032 22.4753 5.06264 22.4076C4.99495 22.3399 4.90316 22.3019 4.80744 22.3019ZM7.72222 10.5907C7.72222 11.2589 8.26394 11.8006 8.93219 11.8006C9.60045 11.8006 10.1422 11.2589 10.1422 10.5907C10.1422 9.92243 9.60045 9.38072 8.93219 9.38072C8.26394 9.38072 7.72222 9.92243 7.72222 10.5907ZM8.93219 12.2518C7.78948 12.2518 6.83959 13.1194 6.70881 14.2284C6.70478 14.2614 6.70781 14.2948 6.71769 14.3264C6.72757 14.3581 6.74409 14.3873 6.76613 14.4121C6.78817 14.4369 6.81524 14.4567 6.84553 14.4702C6.87582 14.4837 6.90864 14.4907 6.94182 14.4905H10.9226C10.9557 14.4906 10.9886 14.4837 11.0188 14.4702C11.0491 14.4567 11.0762 14.4369 11.0982 14.4121C11.1203 14.3873 11.1368 14.3581 11.1467 14.3264C11.1566 14.2948 11.1596 14.2614 11.1556 14.2284C11.0247 13.1194 10.0749 12.2518 8.93219 12.2518ZM2.05421 10.5333H5.30377C5.87251 7.92569 7.92527 5.87279 10.533 5.3041V2.05449C6.15541 2.69459 2.6944 6.15578 2.05421 10.5333ZM22.3976 11.2551H18.5091C18.0992 11.2551 17.7639 11.5904 17.7639 12.0003C17.7639 12.4101 18.0992 12.7455 18.5091 12.7455H22.3976C22.8075 12.7455 23.1429 12.4102 23.1429 12.0003C23.1429 11.5904 22.8075 11.2551 22.3976 11.2551ZM1.6024 12.7455H5.4909C5.90075 12.7455 6.23607 12.4102 6.23607 12.0003C6.23607 11.5905 5.90075 11.2551 5.4909 11.2551H1.6024C1.19251 11.2551 0.85714 11.5904 0.85714 12.0003C0.85714 12.4102 1.19251 12.7455 1.6024 12.7455ZM1.3375 5.16862C1.43322 5.16862 1.52501 5.1306 1.5927 5.06292C1.66038 4.99524 1.6984 4.90344 1.6984 4.80772V1.69869H4.80744C4.90316 1.69869 4.99495 1.66066 5.06264 1.59298C5.13032 1.5253 5.16834 1.4335 5.16834 1.33778C5.16834 1.24207 5.13032 1.15027 5.06264 1.08259C4.99495 1.0149 4.90316 0.976881 4.80744 0.976881H1.3375C1.24178 0.976881 1.14999 1.0149 1.0823 1.08259C1.01462 1.15027 0.976598 1.24207 0.976598 1.33778V4.80777C0.97661 4.90348 1.01464 4.99526 1.08232 5.06293C1.15 5.13061 1.24179 5.16862 1.3375 5.16862ZM19.1926 1.69869H22.3016V4.80777C22.3016 4.90348 22.3396 4.99528 22.4073 5.06296C22.475 5.13065 22.5668 5.16867 22.6625 5.16867C22.7582 5.16867 22.85 5.13065 22.9177 5.06296C22.9854 4.99528 23.0234 4.90348 23.0234 4.80777V1.33778C23.0234 1.24207 22.9854 1.15027 22.9177 1.08259C22.85 1.0149 22.7582 0.976881 22.6625 0.976881H19.1926C19.0968 0.976881 19.005 1.0149 18.9374 1.08259C18.8697 1.15027 18.8316 1.24207 18.8316 1.33778C18.8316 1.4335 18.8697 1.5253 18.9374 1.59298C19.005 1.66066 19.0968 1.69869 19.1926 1.69869ZM12 6.23635C12.4098 6.23635 12.7452 5.90103 12.7452 5.49114V1.60264C12.7452 1.19275 12.4098 0.857422 12 0.857422C11.5901 0.857422 11.2548 1.19275 11.2548 1.60264V5.49118C11.2548 5.90103 11.5901 6.23635 12 6.23635ZM13.8578 10.5907C13.8578 11.2589 14.3995 11.8006 15.0678 11.8006C15.7361 11.8006 16.2778 11.2589 16.2778 10.5907C16.2778 9.92243 15.7361 9.38072 15.0678 9.38072C14.3995 9.38072 13.8578 9.92243 13.8578 10.5907ZM18.6962 10.5333H21.9458C21.3056 6.15578 17.8446 2.69464 13.467 2.05449V5.3041C16.0747 5.87275 18.1275 7.92565 18.6962 10.5333ZM10.988 12.3641H13.012C13.2014 12.1812 13.4141 12.024 13.6446 11.8968C13.3288 11.5529 13.136 11.0943 13.136 10.5907C13.136 10.5402 13.138 10.4903 13.1418 10.4408C12.8069 10.2407 12.4163 10.1254 12 10.1254C11.5836 10.1254 11.193 10.2407 10.8581 10.4407C10.8619 10.4902 10.8639 10.5402 10.8639 10.5907C10.8639 11.0942 10.6711 11.5529 10.3553 11.8967C10.5859 12.024 10.7986 12.1811 10.988 12.3641ZM12 9.67422C12.6682 9.67422 13.21 9.1325 13.21 8.46425C13.21 7.79599 12.6682 7.25432 12 7.25432C11.3317 7.25432 10.79 7.79604 10.79 8.46429C10.79 9.13255 11.3317 9.67422 12 9.67422ZM12 17.7642C11.5901 17.7642 11.2548 18.0995 11.2548 18.5094V22.398C11.2548 22.8078 11.5901 23.1432 12 23.1432C12.4099 23.1432 12.7452 22.8079 12.7452 22.398V18.5094C12.7452 18.0995 12.4098 17.7642 12 17.7642ZM21.9458 13.4673H18.6962C18.1275 16.0749 16.0747 18.1278 13.467 18.6965V21.9461C17.8446 21.306 21.3056 17.8448 21.9458 13.4673ZM17.2912 14.2284C17.1604 13.1194 16.2105 12.2518 15.0678 12.2518C13.9251 12.2518 12.9752 13.1194 12.8444 14.2284C12.8404 14.2614 12.8434 14.2948 12.8533 14.3264C12.8632 14.3581 12.8797 14.3873 12.9017 14.4121C12.9238 14.4369 12.9508 14.4567 12.9811 14.4702C13.0114 14.4837 13.0443 14.4907 13.0774 14.4905H17.0582C17.0913 14.4907 17.1242 14.4837 17.1545 14.4702C17.1848 14.4567 17.2118 14.4369 17.2339 14.4121C17.2559 14.3873 17.2724 14.3581 17.2823 14.3264C17.2922 14.2948 17.2952 14.2614 17.2912 14.2284Z" fill="white"/>
</svg>
